<svg xmlns="http://www.w3.org/2000/svg" viewBox="0 0 470 675">
  <path
    d="M 35 35   L 440 35   A 30 30, 0,0,1, 470 65   L 470,645   A 30 30, 0,0,1, 440,675   L 220,675   A 30 30, 0,0,1, 190 645 L 190,355 A 30 30, 0,0,0, 160,325 L 35,325 A 30 30, 0,0,1, 5,295 L 5,65 A 30 30, 0,0,1, 35 35"
    stroke-width="0" fill="rgb(34,34,34)" />
  <path
    d="M 35 5   L 435 5   A 30 30, 0,0,1, 465 35   L 465,615   A 30 30, 0,0,1, 435,645   L 220,645   A 30 30, 0,0,1, 190 615 L 190,325 A 30 30, 0,0,0, 160,295 L 35,295 A 30 30, 0,0,1, 5,265 L 5,35 A 30 30, 0,0,1, 35 5"
    stroke="rgb(68,68,68)" stroke-width="6" fill="rgb(51,51,51)" />
</svg>